<svg xmlns="http://www.w3.org/2000/svg" viewBox="0 0 1200 400">
  <defs>
    <linearGradient id="bg" x1="0%" y1="0%" x2="100%" y2="100%">
      <stop offset="0%" style="stop-color:#0f172a"/>
      <stop offset="100%" style="stop-color:#1e293b"/>
    </linearGradient>
    <linearGradient id="accent" x1="0%" y1="0%" x2="100%" y2="0%">
      <stop offset="0%" style="stop-color:#3b82f6"/>
      <stop offset="100%" style="stop-color:#8b5cf6"/>
    </linearGradient>
    <linearGradient id="grid" x1="0%" y1="0%" x2="100%" y2="100%">
      <stop offset="0%" style="stop-color:#1e293b"/>
      <stop offset="100%" style="stop-color:#0f172a"/>
    </linearGradient>
  </defs>
  <rect width="1200" height="400" fill="url(#bg)"/>

  <!-- Grid pattern -->
  <g opacity="0.03">
    <line x1="0" y1="100" x2="1200" y2="100" stroke="white" stroke-width="1"/>
    <line x1="0" y1="200" x2="1200" y2="200" stroke="white" stroke-width="1"/>
    <line x1="0" y1="300" x2="1200" y2="300" stroke="white" stroke-width="1"/>
    <line x1="300" y1="0" x2="300" y2="400" stroke="white" stroke-width="1"/>
    <line x1="600" y1="0" x2="600" y2="400" stroke="white" stroke-width="1"/>
    <line x1="900" y1="0" x2="900" y2="400" stroke="white" stroke-width="1"/>
  </g>

  <!-- Glow circles -->
  <circle cx="350" cy="200" r="250" fill="#3b82f6" opacity="0.06"/>
  <circle cx="200" cy="120" r="80" fill="#8b5cf6" opacity="0.08"/>

  <!-- Bot face -->
  <g transform="translate(150, 200)">
    <!-- Bot body -->
    <rect x="-55" y="-60" width="110" height="120" rx="20" fill="#1e293b" stroke="url(#accent)" stroke-width="2"/>
    <!-- Eyes -->
    <circle cx="-18" cy="-15" r="8" fill="#3b82f6">
      <animate attributeName="opacity" values="1;0.4;1" dur="3s" repeatCount="indefinite"/>
    </circle>
    <circle cx="18" cy="-15" r="8" fill="#3b82f6">
      <animate attributeName="opacity" values="1;0.4;1" dur="3s" repeatCount="indefinite"/>
    </circle>
    <!-- Mouth -->
    <rect x="-15" y="10" width="30" height="6" rx="3" fill="#8b5cf6"/>
    <!-- Antenna -->
    <line x1="0" y1="-60" x2="0" y2="-85" stroke="#3b82f6" stroke-width="2"/>
    <circle cx="0" cy="-88" r="5" fill="#8b5cf6">
      <animate attributeName="r" values="5;7;5" dur="2s" repeatCount="indefinite"/>
    </circle>
  </g>

  <!-- Arrow -->
  <g transform="translate(310, 200)">
    <line x1="0" y1="0" x2="80" y2="0" stroke="#475569" stroke-width="3" stroke-dasharray="8 4"/>
    <polygon points="85,-8 100,0 85,8" fill="#475569"/>
  </g>

  <!-- Right side: text -->
  <g transform="translate(450, 200)">
    <text x="0" y="-40" font-family="system-ui, -apple-system, sans-serif" font-size="64" font-weight="800" fill="white" letter-spacing="-2">
      Otclick
    </text>
    <text x="0" y="0" font-family="system-ui, -apple-system, sans-serif" font-size="22" fill="#94a3b8" letter-spacing="1">
      AI-Powered Job Application Automation
    </text>

    <!-- Tags -->
    <rect x="0" y="25" width="80" height="28" rx="14" fill="#1e293b" stroke="#3b82f6" stroke-width="1"/>
    <text x="40" y="44" font-family="system-ui, sans-serif" font-size="12" fill="#3b82f6" text-anchor="middle">FastAPI</text>

    <rect x="92" y="25" width="90" height="28" rx="14" fill="#1e293b" stroke="#8b5cf6" stroke-width="1"/>
    <text x="137" y="44" font-family="system-ui, sans-serif" font-size="12" fill="#8b5cf6" text-anchor="middle">Next.js</text>

    <rect x="194" y="25" width="100" height="28" rx="14" fill="#1e293b" stroke="#10b981" stroke-width="1"/>
    <text x="244" y="44" font-family="system-ui, sans-serif" font-size="12" fill="#10b981" text-anchor="middle">Playwright</text>

    <rect x="306" y="25" width="95" height="28" rx="14" fill="#1e293b" stroke="#22d3ee" stroke-width="1"/>
    <text x="353" y="44" font-family="system-ui, sans-serif" font-size="12" fill="#22d3ee" text-anchor="middle">Supabase</text>
  </g>

  <!-- Bottom tagline -->
  <text x="600" y="355" font-family="system-ui, sans-serif" font-size="14" fill="#475569" text-anchor="middle" letter-spacing="3">
    hh.ru  ·  hh.kz  ·  Open Source  ·  Self-Hostable
  </text>
</svg>
