<svg xmlns="http://www.w3.org/2000/svg" viewBox="0 0 1200 500">
  <defs>
    <linearGradient id="bg" x1="0%" y1="0%" x2="100%" y2="100%">
      <stop offset="0%" style="stop-color:#0f172a"/>
      <stop offset="100%" style="stop-color:#1e293b"/>
    </linearGradient>
    <linearGradient id="accent" x1="0%" y1="0%" x2="100%" y2="0%">
      <stop offset="0%" style="stop-color:#3b82f6"/>
      <stop offset="100%" style="stop-color:#8b5cf6"/>
    </linearGradient>
  </defs>
  <rect width="1200" height="500" fill="url(#bg)"/>

  <!-- Grid pattern -->
  <g opacity="0.03">
    <line x1="0" y1="125" x2="1200" y2="125" stroke="white" stroke-width="1"/>
    <line x1="0" y1="250" x2="1200" y2="250" stroke="white" stroke-width="1"/>
    <line x1="0" y1="375" x2="1200" y2="375" stroke="white" stroke-width="1"/>
    <line x1="300" y1="0" x2="300" y2="500" stroke="white" stroke-width="1"/>
    <line x1="600" y1="0" x2="600" y2="500" stroke="white" stroke-width="1"/>
    <line x1="900" y1="0" x2="900" y2="500" stroke="white" stroke-width="1"/>
  </g>

  <!-- Glow circles -->
  <circle cx="350" cy="250" r="300" fill="#3b82f6" opacity="0.06"/>
  <circle cx="200" cy="150" r="100" fill="#8b5cf6" opacity="0.08"/>

  <!-- Bot face -->
  <g transform="translate(150, 250)">
    <rect x="-68" y="-75" width="136" height="150" rx="25" fill="#1e293b" stroke="url(#accent)" stroke-width="2.5"/>
    <circle cx="-22" cy="-18" r="10" fill="#3b82f6">
      <animate attributeName="opacity" values="1;0.4;1" dur="3s" repeatCount="indefinite"/>
    </circle>
    <circle cx="22" cy="-18" r="10" fill="#3b82f6">
      <animate attributeName="opacity" values="1;0.4;1" dur="3s" repeatCount="indefinite"/>
    </circle>
    <rect x="-18" y="12" width="36" height="7" rx="3.5" fill="#8b5cf6"/>
    <line x1="0" y1="-75" x2="0" y2="-106" stroke="#3b82f6" stroke-width="2.5"/>
    <circle cx="0" cy="-110" r="6" fill="#8b5cf6">
      <animate attributeName="r" values="6;8;6" dur="2s" repeatCount="indefinite"/>
    </circle>
  </g>

  <!-- Arrow -->
  <g transform="translate(310, 250)">
    <line x1="0" y1="0" x2="80" y2="0" stroke="#475569" stroke-width="3.5" stroke-dasharray="10 5"/>
    <polygon points="85,-10 100,0 85,10" fill="#475569"/>
  </g>

  <!-- Right side: text -->
  <g transform="translate(450, 235)">
    <text x="0" y="-50" font-family="system-ui, -apple-system, sans-serif" font-size="96" font-weight="800" fill="white" letter-spacing="-3">
      Otclick
    </text>
    <text x="0" y="5" font-family="system-ui, -apple-system, sans-serif" font-size="33" fill="#94a3b8" letter-spacing="1.5">
      AI-Powered Job Application Automation
    </text>

    <!-- Tags -->
    <rect x="0" y="30" width="120" height="42" rx="21" fill="#1e293b" stroke="#3b82f6" stroke-width="1.5"/>
    <text x="60" y="56" font-family="system-ui, sans-serif" font-size="18" fill="#3b82f6" text-anchor="middle" font-weight="600">FastAPI</text>

    <rect x="134" y="30" width="135" height="42" rx="21" fill="#1e293b" stroke="#8b5cf6" stroke-width="1.5"/>
    <text x="201" y="56" font-family="system-ui, sans-serif" font-size="18" fill="#8b5cf6" text-anchor="middle" font-weight="600">Next.js</text>

    <rect x="283" y="30" width="150" height="42" rx="21" fill="#1e293b" stroke="#10b981" stroke-width="1.5"/>
    <text x="358" y="56" font-family="system-ui, sans-serif" font-size="18" fill="#10b981" text-anchor="middle" font-weight="600">Playwright</text>

    <rect x="447" y="30" width="142" height="42" rx="21" fill="#1e293b" stroke="#22d3ee" stroke-width="1.5"/>
    <text x="518" y="56" font-family="system-ui, sans-serif" font-size="18" fill="#22d3ee" text-anchor="middle" font-weight="600">Supabase</text>
  </g>

  <!-- Bottom tagline -->
  <text x="600" y="440" font-family="system-ui, sans-serif" font-size="21" fill="#475569" text-anchor="middle" letter-spacing="4.5">
    hh.ru  ·  hh.kz  ·  Open Source  ·  Self-Hostable
  </text>
</svg>
