<svg xmlns="http://www.w3.org/2000/svg" viewBox="0 0 1200 600">
  <defs>
    <linearGradient id="bg" x1="0%" y1="0%" x2="100%" y2="100%">
      <stop offset="0%" style="stop-color:#0f172a"/>
      <stop offset="100%" style="stop-color:#1e293b"/>
    </linearGradient>
    <linearGradient id="accent" x1="0%" y1="0%" x2="100%" y2="0%">
      <stop offset="0%" style="stop-color:#3b82f6"/>
      <stop offset="100%" style="stop-color:#8b5cf6"/>
    </linearGradient>
  </defs>
  <rect width="1200" height="600" fill="url(#bg)"/>

  <!-- Grid pattern -->
  <g opacity="0.03">
    <line x1="0" y1="150" x2="1200" y2="150" stroke="white" stroke-width="1"/>
    <line x1="0" y1="300" x2="1200" y2="300" stroke="white" stroke-width="1"/>
    <line x1="0" y1="450" x2="1200" y2="450" stroke="white" stroke-width="1"/>
    <line x1="300" y1="0" x2="300" y2="600" stroke="white" stroke-width="1"/>
    <line x1="600" y1="0" x2="600" y2="600" stroke="white" stroke-width="1"/>
    <line x1="900" y1="0" x2="900" y2="600" stroke="white" stroke-width="1"/>
  </g>

  <!-- Glow circles -->
  <circle cx="350" cy="300" r="350" fill="#3b82f6" opacity="0.06"/>
  <circle cx="200" cy="180" r="120" fill="#8b5cf6" opacity="0.08"/>

  <!-- Bot face -->
  <g transform="translate(150, 300)">
    <rect x="-80" y="-90" width="160" height="180" rx="30" fill="#1e293b" stroke="url(#accent)" stroke-width="3"/>
    <circle cx="-26" cy="-22" r="12" fill="#3b82f6">
      <animate attributeName="opacity" values="1;0.4;1" dur="3s" repeatCount="indefinite"/>
    </circle>
    <circle cx="26" cy="-22" r="12" fill="#3b82f6">
      <animate attributeName="opacity" values="1;0.4;1" dur="3s" repeatCount="indefinite"/>
    </circle>
    <rect x="-22" y="15" width="44" height="9" rx="4.5" fill="#8b5cf6"/>
    <line x1="0" y1="-90" x2="0" y2="-128" stroke="#3b82f6" stroke-width="3"/>
    <circle cx="0" cy="-132" r="8" fill="#8b5cf6">
      <animate attributeName="r" values="8;11;8" dur="2s" repeatCount="indefinite"/>
    </circle>
  </g>

  <!-- Arrow -->
  <g transform="translate(310, 300)">
    <line x1="0" y1="0" x2="80" y2="0" stroke="#475569" stroke-width="4" stroke-dasharray="12 6"/>
    <polygon points="85,-12 100,0 85,12" fill="#475569"/>
  </g>

  <!-- Right side: text -->
  <g transform="translate(450, 280)">
    <text x="0" y="-60" font-family="system-ui, -apple-system, sans-serif" font-size="128" font-weight="800" fill="white" letter-spacing="-4">
      Otclick
    </text>
    <text x="0" y="10" font-family="system-ui, -apple-system, sans-serif" font-size="44" fill="#94a3b8" letter-spacing="2">
      AI-Powered Job Application Automation
    </text>

    <!-- Tags -->
    <rect x="0" y="40" width="160" height="56" rx="28" fill="#1e293b" stroke="#3b82f6" stroke-width="2"/>
    <text x="80" y="74" font-family="system-ui, sans-serif" font-size="24" fill="#3b82f6" text-anchor="middle" font-weight="600">FastAPI</text>

    <rect x="176" y="40" width="180" height="56" rx="28" fill="#1e293b" stroke="#8b5cf6" stroke-width="2"/>
    <text x="266" y="74" font-family="system-ui, sans-serif" font-size="24" fill="#8b5cf6" text-anchor="middle" font-weight="600">Next.js</text>

    <rect x="372" y="40" width="200" height="56" rx="28" fill="#1e293b" stroke="#10b981" stroke-width="2"/>
    <text x="472" y="74" font-family="system-ui, sans-serif" font-size="24" fill="#10b981" text-anchor="middle" font-weight="600">Playwright</text>

    <rect x="588" y="40" width="190" height="56" rx="28" fill="#1e293b" stroke="#22d3ee" stroke-width="2"/>
    <text x="683" y="74" font-family="system-ui, sans-serif" font-size="24" fill="#22d3ee" text-anchor="middle" font-weight="600">Supabase</text>
  </g>

  <!-- Bottom tagline -->
  <text x="600" y="530" font-family="system-ui, sans-serif" font-size="28" fill="#475569" text-anchor="middle" letter-spacing="6">
    hh.ru  ·  hh.kz  ·  Open Source  ·  Self-Hostable
  </text>
</svg>
